<svg width="21" height="20" viewBox="0 0 21 20" fill="none" xmlns="http://www.w3.org/2000/svg">
<path fill-rule="evenodd" clip-rule="evenodd" d="M2.5 4.75C2.5 4.55109 2.57902 4.36032 2.71967 4.21967C2.86032 4.07902 3.05109 4 3.25 4H17.75C17.9489 4 18.1397 4.07902 18.2803 4.21967C18.421 4.36032 18.5 4.55109 18.5 4.75C18.5 4.94891 18.421 5.13968 18.2803 5.28033C18.1397 5.42098 17.9489 5.5 17.75 5.5H3.25C3.05109 5.5 2.86032 5.42098 2.71967 5.28033C2.57902 5.13968 2.5 4.94891 2.5 4.75ZM2.5 10C2.5 9.80109 2.57902 9.61032 2.71967 9.46967C2.86032 9.32902 3.05109 9.25 3.25 9.25H17.75C17.9489 9.25 18.1397 9.32902 18.2803 9.46967C18.421 9.61032 18.5 9.80109 18.5 10C18.5 10.1989 18.421 10.3897 18.2803 10.5303C18.1397 10.671 17.9489 10.75 17.75 10.75H3.25C3.05109 10.75 2.86032 10.671 2.71967 10.5303C2.57902 10.3897 2.5 10.1989 2.5 10ZM2.5 15.25C2.5 15.0511 2.57902 14.8603 2.71967 14.7197C2.86032 14.579 3.05109 14.5 3.25 14.5H17.75C17.9489 14.5 18.1397 14.579 18.2803 14.7197C18.421 14.8603 18.5 15.0511 18.5 15.25C18.5 15.4489 18.421 15.6397 18.2803 15.7803C18.1397 15.921 17.9489 16 17.75 16H3.25C3.05109 16 2.86032 15.921 2.71967 15.7803C2.57902 15.6397 2.5 15.4489 2.5 15.25Z" fill="black"/>
</svg>
